#!OML:ASF F:\VICON\USERDATA\INSTALL\rory3\rory3.ASF
:FULLY-SPECIFIED
:DEGREES
368
root 3.31075 17.8104 13.8643 37.0637 -96.8018 -36.5968
lowerback 11.1251 -0.989938 -5.2294
upperback 0.899941 -1.96928 0.681404
thorax -5.09946 -0.867832 3.96668
lowerneck -23.2439 -4.80985 -11.1545
upperneck 26.3624 -5.46784 8.06545
head 13.2981 -2.54267 4.03025
rclavicle 7.70291e-015 9.14409e-015
rhumerus -41.8102 -20.729 -74.4844
rradius 29.5587
rwrist 7.72574
rhand -14.7971 9.0208
rfingers 7.12502
rthumb 11.3605 -20.6515
lclavicle 7.70291e-015 9.14409e-015
lhumerus -26.8209 1.6585 85.2123
lradius 38.8637
lwrist -5.22853
lhand -18.1447 25.7004
lfingers 7.12502
lthumb 8.13068 55.5239
rfemur -27.9772 -3.51058 17.7791
rtibia 30.9665
rfoot -5.59784 -4.10868
rtoes 19.4765
lfemur 11.619 1.82864 -26.675
ltibia 4.53185
lfoot -8.97658 -6.60569
ltoes -6.95795
369
root 3.19314 17.8182 13.8533 38.0959 -96.8005 -37.5935
lowerback 11.1448 -0.962552 -5.35474
upperback 0.931609 -1.95147 0.650688
thorax -5.076 -0.858483 4.00257
lowerneck -23.2799 -4.85312 -11.0077
upperneck 26.2827 -5.53673 7.95182
head 13.2719 -2.5692 3.9441
rclavicle 5.66536e-015 -8.74653e-015
rhumerus -41.7014 -20.5654 -74.8615
rradius 29.8156
rwrist 7.5727
rhand -15.0213 8.84329
rfingers 7.12502
rthumb 11.1442 -20.8408
lclavicle 5.66536e-015 -8.74653e-015
lhumerus -26.8395 1.5092 85.281
lradius 38.8268
lwrist -5.3218
lhand -18.3187 25.5622
lfingers 7.12502
lthumb 7.96273 55.3922
rfemur -27.8523 -3.10947 17.5224
rtibia 28.8253
rfoot -4.4557 -4.43295
rtoes 20.3276
lfemur 12.3597 1.56758 -26.8285
ltibia 3.74016
lfoot -8.5353 -6.43689
ltoes -8.24637
370
root 3.07312 17.8221 13.8392 38.8337 -96.7834 -38.2883
lowerback 11.1057 -0.935899 -5.45864
upperback 0.993795 -1.926 0.656846
thorax -4.98779 -0.848514 4.06146
lowerneck -23.3928 -4.89632 -11.0017
upperneck 26.2142 -5.56867 7.92622
head 13.2695 -2.58021 3.92461
rclavicle -2.86747e-014 -4.37326e-015
rhumerus -41.5022 -20.6168 -75.0212
rradius 29.9115
rwrist 7.90973
rhand -15.0666 8.87333
rfingers 7.12502
rthumb 11.1005 -20.8131
lclavicle -2.86747e-014 -4.37326e-015
lhumerus -26.7968 1.31979 85.4026
lradius 38.7601
lwrist -5.33246
lhand -18.4824 25.5005
lfingers 7.12502
lthumb 7.80479 55.3365
rfemur -27.7645 -2.58788 17.3029
rtibia 26.9973
rfoot -3.65626 -4.77619
rtoes 19.2797
lfemur 14.2877 1.32288 -26.9693
ltibia 0.63196
lfoot -7.00076 -6.44727
ltoes -9.16899
371
root 2.95122 17.8198 13.824 39.0152 -96.7438 -38.3863
lowerback 11.035 -0.954088 -5.4214
upperback 1.00138 -1.94222 0.634193
thorax -4.94058 -0.859177 4.01623
lowerneck -23.3897 -4.89594 -11.0196
upperneck 26.1249 -5.58096 8.01555
head 13.2373 -2.57324 3.95897
rclavicle -7.55382e-015 3.18055e-015
rhumerus -41.3372 -20.5295 -75.1882
rradius 29.9966
rwrist 8.32636
rhand -14.6254 8.95568
rfingers 7.12502
rthumb 11.526 -20.7074
lclavicle -7.55382e-015 3.18055e-015
lhumerus -26.8472 1.21007 85.3993
lradius 38.7064
lwrist -5.29968
lhand -18.4957 25.9096
lfingers 7.12502
lthumb 7.79188 55.746
rfemur -27.8291 -2.70347 17.4035
rtibia 25.4822
rfoot -3.02215 -4.55362
rtoes 16.9116
lfemur 14.9557 1.0886 -26.9906
ltibia -4.13472e-014
lfoot -6.67002 -6.30847
ltoes -9.83675
372
root 2.82842 17.8184 13.8079 39.6204 -96.7733 -38.9407
lowerback 10.978 -0.966177 -5.51669
upperback 1.01237 -1.96704 0.620596
thorax -4.89182 -0.871505 4.05709
lowerneck -23.3286 -4.89139 -11.0677
upperneck 25.9969 -5.56896 8.07284
head 13.1745 -2.5636 3.98915
rclavicle -7.70291e-015 1.27222e-014
rhumerus -41.1095 -20.1165 -75.4967
rradius 30.1134
rwrist 8.17806
rhand -14.2838 9.00746
rfingers 7.12502
rthumb 11.8554 -20.6369
lclavicle -7.70291e-015 1.27222e-014
lhumerus -26.9879 1.05604 85.4294
lradius 38.7291
lwrist -5.14011
lhand -18.4997 26.3034
lfingers 7.12502
lthumb 7.78808 56.14
rfemur -27.9537 -2.9739 17.5193
rtibia 24.301
rfoot -2.82847 -4.17374
rtoes 14.295
lfemur 15.3275 0.874573 -27.0868
ltibia -3.18055e-014
lfoot -6.61372 -6.20247
ltoes -10.8038
373
root 2.69949 17.8155 13.7916 39.8593 -96.8351 -39.2806
lowerback 10.9836 -0.91366 -5.64809
upperback 1.09125 -1.91286 0.633848
thorax -4.81311 -0.847331 4.13622
lowerneck -23.3625 -4.96115 -11.2462
upperneck 25.9889 -5.6239 8.16498
head 13.1947 -2.59193 4.04588
rclavicle -7.60351e-015 1.43125e-014
rhumerus -40.9686 -19.677 -75.8409
rradius 30.3374
rwrist 7.68931
rhand -14.4197 9.05372
rfingers 7.12502
rthumb 11.7244 -20.5982
lclavicle -7.60351e-015 1.43125e-014
lhumerus -27.0403 0.903843 85.5585
lradius 38.5987
lwrist -4.855
lhand -18.6459 26.4329
lfingers 7.12502
lthumb 7.64698 56.2747
rfemur -27.8831 -2.66769 17.4164
rtibia 23.4802
rfoot -3.50454 -3.89734
rtoes 12.0517
lfemur 15.8863 0.722313 -27.1961
ltibia -1.59028e-014
lfoot -6.54066 -6.03502
ltoes -11.9551
374
root 2.564 17.8016 13.7761 41.5156 -97.1829 -41.2925
lowerback 11.1602 -0.768197 -6.02911
upperback 1.2242 -1.78859 0.459957
thorax -4.77974 -0.786718 4.15376
lowerneck -23.3297 -5.0465 -11.3209
upperneck 25.99 -5.75631 8.26588
head 13.2112 -2.645 4.07428
rclavicle 1.51076e-014 1.59028e-015
rhumerus -40.9773 -19.7226 -76.03
rradius 30.5567
rwrist 7.75012
rhand -14.4179 9.0218
rfingers 7.12502
rthumb 11.7262 -20.63
lclavicle 1.51076e-014 1.59028e-015
lhumerus -27.0626 0.813049 85.5666
lradius 38.335
lwrist -4.74884
lhand -19.0444 26.6572
lfingers 7.12502
lthumb 7.2623 56.5126
rfemur -27.4396 -2.24542 16.8225
rtibia 22.8574
rfoot -4.77975 -3.24284
rtoes 8.45945
lfemur 16.7395 0.686799 -27.6621
ltibia 2.22639e-014
lfoot -6.38174 -6.01259
ltoes -11.9648
375
root 2.43057 17.7842 13.7614 44.1601 -97.6304 -44.2271
lowerback 11.3348 -0.660827 -6.53704
upperback 1.28284 -1.73639 0.231572
thorax -4.81385 -0.755488 4.19662
lowerneck -23.1613 -5.01854 -11.1826
upperneck 25.9377 -5.76494 8.1922
head 13.1486 -2.64835 4.01851
rclavicle -2.13694e-015 -9.54166e-015
rhumerus -40.9887 -19.8068 -76.1173
rradius 30.7375
rwrist 8.01714
rhand -14.0559 9.14997
rfingers 7.12502
rthumb 12.0752 -20.4816
lclavicle -2.13694e-015 -9.54166e-015
lhumerus -27.186 0.86631 85.5063
lradius 38.0755
lwrist -4.77242
lhand -19.3217 27.029
lfingers 7.12502
lthumb 6.99466 56.8935
rfemur -27.0157 -1.9825 16.0691
rtibia 22.3904
rfoot -6.28783 -2.43905
rtoes 2.50479
lfemur 17.4809 0.609329 -28.2859
ltibia -5.725e-014
lfoot -6.11285 -6.19236
ltoes -11.2627
376
root 2.30398 17.7778 13.7485 43.622 -97.5753 -43.6803
lowerback 11.3435 -0.634056 -6.34206
upperback 1.26088 -1.67767 0.222018
thorax -4.85465 -0.727966 4.06846
lowerneck -22.959 -5.00404 -11.0136
upperneck 25.7786 -5.75389 7.98551
head 13.0276 -2.65538 3.9055
rclavicle 8.84592e-015 -3.97569e-016
rhumerus -40.9533 -19.8616 -76.1571
rradius 30.9169
rwrist 8.23304
rhand -14.0882 9.23619
rfingers 7.12502
rthumb 12.0441 -20.3972
lclavicle 8.84592e-015 -3.97569e-016
lhumerus -27.2801 0.881221 85.556
lradius 37.7579
lwrist -4.76126
lhand -19.6886 27.2027
lfingers 7.12502
lthumb 6.64048 57.0785
rfemur -26.8454 -1.27917 15.9985
rtibia 22.1132
rfoot -7.70484 -2.46044
rtoes -3.11733
lfemur 17.9035 0.419883 -28.1716
ltibia 3.49861e-014
lfoot -5.78377 -6.35789
ltoes -10.99
377
root 2.17803 17.7762 13.7375 41.9716 -97.4344 -41.8684
lowerback 11.1864 -0.604747 -5.95168
upperback 1.22253 -1.57587 0.258733
thorax -4.82844 -0.683817 3.8679
lowerneck -22.9927 -5.04591 -11.0507
upperneck 25.9044 -5.79005 7.92862
head 13.0896 -2.68437 3.88533
rclavicle -1.40143e-014 -3.57812e-015
rhumerus -40.875 -19.8147 -76.2529
rradius 31.1142
rwrist 8.37764
rhand -14.2225 9.30358
rfingers 7.12502
rthumb 11.9146 -20.3374
lclavicle -1.40143e-014 -3.57812e-015
lhumerus -27.365 0.650827 85.6229
lradius 37.5237
lwrist -4.46446
lhand -20.1676 27.6054
lfingers 7.12502
lthumb 6.17804 57.4954
rfemur -26.847 -1.06573 16.3339
rtibia 22.001
rfoot -8.43863 -2.38438
rtoes -5.25247
lfemur 18.1884 0.257764 -27.883
ltibia -3.18055e-015
lfoot -5.46806 -6.43382
ltoes -11.2579
378
root 2.04977 17.7695 13.7212 41.0414 -97.5898 -40.95
lowerback 11.1614 -0.509123 -5.9181
upperback 1.21103 -1.44571 0.215941
thorax -4.84285 -0.619873 3.7844
lowerneck -22.9827 -5.04119 -10.989
upperneck 26.086 -5.80151 7.84582
head 13.158 -2.69919 3.84417
rclavicle 2.2413e-014 -7.95139e-016
rhumerus -40.8007 -19.5754 -76.434
rradius 31.2711
rwrist 8.38617
rhand -14.1442 9.40178
rfingers 7.12502
rthumb 11.9901 -20.2348
lclavicle 2.2413e-014 -7.95139e-016
lhumerus -27.5193 0.46959 85.5617
lradius 37.2713
lwrist -4.26439
lhand -20.0542 27.5828
lfingers 7.12502
lthumb 6.28746 57.4694
rfemur -26.7321 -1.70552 16.6745
rtibia 22.0506
rfoot -8.01516 -1.07599
rtoes -5.34966
lfemur 18.6467 0.259438 -27.8926
ltibia 2.54444e-014
lfoot -5.25983 -6.49284
ltoes -13.04
379
root 1.91863 17.7648 13.7004 40.3889 -97.7931 -40.412
lowerback 11.256 -0.429218 -5.98954
upperback 1.19804 -1.35788 0.18184
thorax -4.91803 -0.572961 3.77852
lowerneck -22.8976 -5.03445 -11.0117
upperneck 26.1225 -5.80344 7.85752
head 13.1571 -2.70448 3.85359
rclavicle 7.15625e-015 1.98785e-015
rhumerus -40.6745 -19.3532 -76.553
rradius 31.2595
rwrist 8.45671
rhand -13.9802 9.55515
rfingers 7.12502
rthumb 12.1482 -20.0721
lclavicle 7.15625e-015 1.98785e-015
lhumerus -27.7063 1.00504 85.3532
lradius 36.8407
lwrist -5.05421
lhand -19.0626 26.764
lfingers 7.12502
lthumb 7.24477 56.62
rfemur -26.5571 -2.40864 16.9512
rtibia 22.3603
rfoot -6.81097 0.786796
rtoes -2.93578
lfemur 19.1995 0.274725 -27.9445
ltibia 6.36111e-015
lfoot -4.90211 -6.64866
ltoes -13.3778
